<?xml version="1.0" encoding="utf-8"?>
<!-- Generator: Adobe Illustrator 23.0.1, SVG Export Plug-In . SVG Version: 6.00 Build 0)  -->
<svg version="1.1" id="Warstwa_1" xmlns="http://www.w3.org/2000/svg" xmlns:xlink="http://www.w3.org/1999/xlink" x="0px" y="0px"
	 viewBox="0 0 9 13" style="enable-background:new 0 0 9 13;" xml:space="preserve">
<style type="text/css">
	.st0{fill-rule:evenodd;clip-rule:evenodd;}
</style>
<g id="Page-1">
	<path id="Combined-Shape" class="st0" d="M7.3,6.2c0,0-0.1-0.1-0.1-0.1L2,1.2c-0.2-0.2-0.6-0.2-0.8,0C0.9,1.4,0.9,1.7,1.2,2
		c0,0,0,0,0,0l4.9,4.7l-4.9,4.7c-0.2,0.2-0.2,0.6,0,0.8c0,0,0,0,0,0c0.2,0.2,0.6,0.2,0.8,0L7.4,7C7.6,6.8,7.6,6.5,7.3,6.2
		C7.4,6.2,7.4,6.2,7.3,6.2C7.4,6.2,7.3,6.2,7.3,6.2z"/>
</g>
</svg>
