<?xml version="1.0" encoding="utf-8"?>
<!-- Generator: Adobe Illustrator 19.2.1, SVG Export Plug-In . SVG Version: 6.00 Build 0)  -->
<svg version="1.1" id="Layer_1" xmlns="http://www.w3.org/2000/svg" xmlns:xlink="http://www.w3.org/1999/xlink" x="0px" y="0px"
	 viewBox="0 0 48 48" style="enable-background:new 0 0 48 48;" xml:space="preserve">
<g>
	<path d="M39.7,7.6c0-2.2-1.8-4-4-4c-2.2,0-4,1.8-4,4s1.8,4,4,4C37.9,11.6,39.7,9.8,39.7,7.6L39.7,7.6z"/>
</g>
<g>
	<path d="M0.3,40.8l4.3,3.7l12.2-14.3c1-1.2,0.9-3-0.3-4c-1.2-1-3-0.9-4,0.3L0.3,40.8z"/>
</g>
<g>
	<path d="M37.2,15.8l-6.4-5.4C28.9,8.8,26.5,8,24,8H9.6c-1.6,0-2.8,1.3-2.8,2.8v2.8h2.8h11.2c0.2,0,0.4,0.1,0.6,0.2
		c0.4,0.3,0.4,0.9,0.1,1.3l-3.7,4.2c-1.5,1.7-1.4,4.4,0.2,6l4.9,4.9c0,0,0.1,0.1,0.1,0.1c0.4,0.5,0.3,1.2-0.2,1.5l-7.3,5.7l3.5,4.4
		l7.6-6c2.7-2.2,3.2-6.1,1-8.9c-0.1-0.2-0.3-0.4-0.5-0.5l-3.7-3.7c-0.4-0.4-0.4-1.1,0-1.5l4.2-4.9c0.4-0.5,1.1-0.5,1.5-0.1l5.9,4.9
		c1.4,1.2,3.4,1.4,5,0.4l6.4-3.7c1.3-0.8,1.8-2.5,1-3.8l-1.4-2.4l-2.4,1.4L39.1,16C38.5,16.3,37.8,16.2,37.2,15.8z"/>
</g>
</svg>
