<?xml version="1.0" encoding="utf-8"?>
<!-- Generator: Adobe Illustrator 23.0.1, SVG Export Plug-In . SVG Version: 6.00 Build 0)  -->
<svg version="1.1" id="Warstwa_1" xmlns="http://www.w3.org/2000/svg" xmlns:xlink="http://www.w3.org/1999/xlink" x="0px" y="0px"
	 viewBox="0 0 91 54" style="enable-background:new 0 0 91 54;" xml:space="preserve">
<style type="text/css">
	.st0{fill-rule:evenodd;clip-rule:evenodd;}
</style>
<g id="Page-1">
	<path id="Combined-Shape" class="st0" d="M79.9,5.2c0,2.9-2.4,5.2-5.2,5.2s-5.2-2.4-5.2-5.2S71.8,0,74.7,0S79.9,2.4,79.9,5.2z
		 M28.4,48.6l16-18.7c1.3-1.6,3.7-1.7,5.2-0.4c1.6,1.3,1.7,3.7,0.4,5.2L34,53.5L28.4,48.6z M76.6,16c0.8,0.5,1.7,0.7,2.5,0.3
		l5.9-3.8l3.1-1.8l1.8,3.1c1,1.7,0.4,3.9-1.3,5l-8.4,4.8c-2.1,1.3-4.7,1-6.5-0.5l-7.7-6.4c-0.5-0.5-1.4-0.5-2,0.1l-5.5,6.4
		c-0.5,0.5-0.5,1.4,0,2l4.8,4.8c0.3,0.1,0.5,0.4,0.7,0.7c2.9,3.7,2.2,8.8-1.3,11.6l-9.9,7.8l-4.6-5.8l9.5-7.5c0.7-0.4,0.8-1.3,0.3-2
		l-0.1-0.1l-6.4-6.4c-2.1-2.1-2.2-5.6-0.3-7.8l4.8-5.5c0.4-0.5,0.4-1.3-0.1-1.7c-0.3-0.1-0.5-0.3-0.8-0.3H40.6h-3.7V9.4
		c0-2,1.6-3.7,3.7-3.7h18.8c3.3,0,6.4,1,8.9,3.1L76.6,16z M33.4,19.3H18.2c-0.8,0-1.5-0.7-1.5-1.5s0.7-1.5,1.5-1.5h15.1
		c0.8,0,1.5,0.7,1.5,1.5S34.2,19.3,33.4,19.3z M30.4,26.8H9.7c-0.8,0-1.5-0.7-1.5-1.5s0.7-1.5,1.5-1.5h20.6c0.8,0,1.5,0.7,1.5,1.5
		C31.9,26.1,31.2,26.8,30.4,26.8z M27.4,34.4H1.5c-0.8,0-1.5-0.7-1.5-1.5c0-0.8,0.7-1.5,1.5-1.5h25.8c0.8,0,1.5,0.7,1.5,1.5
		C28.9,33.7,28.2,34.4,27.4,34.4z"/>
</g>
</svg>
