<?xml version="1.0" encoding="utf-8"?>
<!-- Generator: Adobe Illustrator 23.0.1, SVG Export Plug-In . SVG Version: 6.00 Build 0)  -->
<svg version="1.1" id="Warstwa_1" xmlns="http://www.w3.org/2000/svg" xmlns:xlink="http://www.w3.org/1999/xlink" x="0px" y="0px"
	 viewBox="0 0 246 118" style="enable-background:new 0 0 246 118;" xml:space="preserve">
<style type="text/css">
	.st0{fill-rule:evenodd;clip-rule:evenodd;fill:#FEFCF5;}
	.st1{fill-rule:evenodd;clip-rule:evenodd;fill:#FFD823;}
	.st2{fill-rule:evenodd;clip-rule:evenodd;fill:#FFFFFF;}
</style>
<g id="Page-1">
	<g id="Group">
		<path id="Ubezpieczenia" class="st0" d="M66.5,70.2v14.2c0,2.4-0.7,4.2-2.2,5.6c-1.5,1.4-3.5,2.1-6,2.1c-2.5,0-4.5-0.7-6-2
			S50,86.9,50,84.6V70.2h4.4v14.3c0,1.4,0.3,2.4,1,3.1c0.7,0.6,1.6,1,2.8,1c2.5,0,3.8-1.3,3.8-4V70.2H66.5z M84.3,83.9
			c0,2.6-0.5,4.6-1.6,6S80,92.1,78,92.1c-1.7,0-3.1-0.7-4.2-2l-0.2,1.7h-3.8V69h4.3v8.2c1-1.2,2.3-1.7,3.9-1.7c2,0,3.5,0.7,4.6,2.2
			c1.1,1.4,1.7,3.5,1.7,6.1V83.9z M80,83.6c0-1.6-0.3-2.8-0.8-3.6c-0.5-0.7-1.3-1.1-2.3-1.1c-1.4,0-2.3,0.6-2.8,1.7V87
			c0.5,1.1,1.5,1.7,2.8,1.7c1.4,0,2.3-0.7,2.7-2.1C79.9,86,80,85,80,83.6z M94.3,92.1c-2.3,0-4.3-0.7-5.7-2.2s-2.2-3.4-2.2-5.8v-0.4
			c0-1.6,0.3-3.1,0.9-4.3s1.5-2.3,2.6-2.9c1.1-0.7,2.4-1,3.9-1c2.2,0,3.9,0.7,5.2,2.1s1.9,3.4,1.9,5.9v1.8H90.7
			c0.1,1,0.6,1.9,1.2,2.5s1.6,1,2.6,1c1.6,0,2.9-0.6,3.9-1.8l2.1,2.4c-0.6,0.9-1.5,1.6-2.6,2.1S95.6,92.1,94.3,92.1z M93.8,78.9
			c-0.8,0-1.5,0.3-2.1,0.9s-0.9,1.4-1,2.5h5.9v-0.3c0-1-0.3-1.7-0.8-2.2C95.4,79.2,94.7,78.9,93.8,78.9z M108.2,88.4h7.8v3.5h-13.3
			v-2.6l7.5-10h-7.3v-3.5h12.8v2.5L108.2,88.4z M133.1,83.9c0,2.5-0.6,4.5-1.7,6c-1.1,1.5-2.6,2.2-4.5,2.2c-1.6,0-2.9-0.6-3.9-1.7
			V98h-4.3V75.7h4l0.1,1.6c1-1.2,2.4-1.9,4.1-1.9c2,0,3.5,0.7,4.6,2.2c1.1,1.5,1.6,3.5,1.6,6.1V83.9z M128.8,83.6
			c0-1.5-0.3-2.6-0.8-3.5c-0.5-0.8-1.3-1.2-2.3-1.2c-1.3,0-2.3,0.5-2.8,1.5v6.6c0.5,1.1,1.5,1.6,2.8,1.6
			C127.8,88.7,128.8,87,128.8,83.6z M140.2,91.8h-4.3V75.7h4.3V91.8z M135.7,71.6c0-0.6,0.2-1.2,0.6-1.6s1-0.6,1.8-0.6
			c0.7,0,1.3,0.2,1.7,0.6s0.7,0.9,0.7,1.6c0,0.7-0.2,1.2-0.7,1.6s-1,0.6-1.7,0.6c-0.7,0-1.3-0.2-1.7-0.6S135.7,72.2,135.7,71.6z
			 M151.1,92.1c-2.3,0-4.3-0.7-5.7-2.2c-1.5-1.4-2.2-3.4-2.2-5.8v-0.4c0-1.6,0.3-3.1,0.9-4.3s1.5-2.3,2.6-2.9c1.1-0.7,2.4-1,3.9-1
			c2.2,0,3.9,0.7,5.2,2.1s1.9,3.4,1.9,5.9v1.8h-10.2c0.1,1,0.6,1.9,1.2,2.5s1.6,1,2.6,1c1.6,0,2.9-0.6,3.9-1.8l2.1,2.4
			c-0.6,0.9-1.5,1.6-2.6,2.1C153.6,91.9,152.4,92.1,151.1,92.1z M150.6,78.9c-0.8,0-1.5,0.3-2.1,0.9s-0.9,1.4-1,2.5h5.9v-0.3
			c0-1-0.3-1.7-0.8-2.2S151.5,78.9,150.6,78.9z M166.8,88.7c0.8,0,1.4-0.2,1.9-0.7c0.5-0.4,0.7-1,0.8-1.7h4c0,1.1-0.3,2.1-0.9,3
			c-0.6,0.9-1.4,1.6-2.4,2.1c-1,0.5-2.1,0.8-3.3,0.8c-2.3,0-4.1-0.7-5.4-2.2c-1.3-1.5-2-3.5-2-6.1v-0.3c0-2.5,0.7-4.5,2-5.9
			c1.3-1.5,3.1-2.2,5.4-2.2c2,0,3.6,0.6,4.8,1.7c1.2,1.1,1.8,2.7,1.8,4.6h-4c0-0.8-0.3-1.5-0.8-2c-0.5-0.5-1.1-0.8-2-0.8
			c-1,0-1.7,0.4-2.3,1.1s-0.8,1.9-0.8,3.5V84c0,1.7,0.3,2.8,0.8,3.6C165,88.3,165.7,88.7,166.8,88.7z M180.8,88.4h7.8v3.5h-13.3
			v-2.6l7.5-10h-7.3v-3.5h12.8v2.5L180.8,88.4z M198.4,92.1c-2.3,0-4.3-0.7-5.7-2.2s-2.2-3.4-2.2-5.8v-0.4c0-1.6,0.3-3.1,0.9-4.3
			s1.5-2.3,2.6-2.9c1.1-0.7,2.4-1,3.9-1c2.2,0,3.9,0.7,5.2,2.1s1.9,3.4,1.9,5.9v1.8h-10.2c0.1,1,0.6,1.9,1.2,2.5
			c0.7,0.6,1.6,1,2.6,1c1.6,0,2.9-0.6,3.9-1.8l2.1,2.4c-0.6,0.9-1.5,1.6-2.6,2.1C201,91.9,199.8,92.1,198.4,92.1z M197.9,78.9
			c-0.8,0-1.5,0.3-2.1,0.9s-0.9,1.4-1,2.5h5.9v-0.3c0-1-0.3-1.7-0.8-2.2C199.5,79.2,198.8,78.9,197.9,78.9z M211.4,75.7l0.1,1.9
			c1.1-1.4,2.7-2.2,4.6-2.2c1.7,0,3,0.5,3.8,1.5c0.8,1,1.3,2.5,1.3,4.5v10.4h-4.3V81.5c0-0.9-0.2-1.6-0.6-2c-0.4-0.4-1-0.6-2-0.6
			c-1.2,0-2.1,0.5-2.7,1.5v11.3h-4.3V75.7H211.4z M228.9,91.8h-4.3V75.7h4.3V91.8z M224.4,71.6c0-0.6,0.2-1.2,0.6-1.6s1-0.6,1.8-0.6
			c0.7,0,1.3,0.2,1.7,0.6s0.7,0.9,0.7,1.6c0,0.7-0.2,1.2-0.7,1.6c-0.4,0.4-1,0.6-1.7,0.6s-1.3-0.2-1.7-0.6S224.4,72.2,224.4,71.6z
			 M241.7,91.8c-0.2-0.4-0.3-0.9-0.4-1.4c-1,1.2-2.4,1.7-4,1.7c-1.6,0-2.9-0.5-3.9-1.4s-1.5-2.1-1.5-3.4c0-1.7,0.6-3,1.9-3.9
			c1.3-0.9,3.1-1.4,5.4-1.4h2v-0.9c0-0.7-0.2-1.3-0.6-1.8s-1-0.7-1.8-0.7c-0.7,0-1.3,0.2-1.7,0.5c-0.4,0.3-0.6,0.8-0.6,1.4h-4.3
			c0-0.9,0.3-1.8,0.9-2.6c0.6-0.8,1.4-1.4,2.4-1.9s2.2-0.7,3.5-0.7c2,0,3.5,0.5,4.7,1.5c1.2,1,1.7,2.4,1.7,4.2v7
			c0,1.5,0.2,2.7,0.6,3.5v0.3H241.7z M238.1,88.8c0.6,0,1.2-0.1,1.7-0.4c0.5-0.3,0.9-0.7,1.2-1.1v-2.8h-1.6c-2.1,0-3.3,0.7-3.4,2.2
			l0,0.3c0,0.5,0.2,1,0.6,1.3C237,88.7,237.5,88.8,238.1,88.8z"/>
		<path id="dla-sportu" class="st1" d="M154,108.1c0-1.7,0.4-3.1,1.2-4.1c0.8-1,1.9-1.6,3.2-1.6c1.3,0,2.3,0.4,3.1,1.3V98h1.9v15.7
			h-1.7l-0.1-1.2c-0.8,0.9-1.8,1.4-3.2,1.4c-1.3,0-2.3-0.5-3.2-1.6c-0.8-1.1-1.2-2.4-1.2-4.1V108.1z M155.9,108.3
			c0,1.3,0.3,2.2,0.8,3c0.5,0.7,1.2,1.1,2.2,1.1c1.2,0,2.1-0.5,2.6-1.6v-5.1c-0.6-1-1.4-1.6-2.6-1.6c-0.9,0-1.7,0.4-2.2,1.1
			S155.9,106.9,155.9,108.3z M168.4,113.7h-1.9V98h1.9V113.7z M178.3,113.7c-0.1-0.2-0.2-0.6-0.3-1.2c-0.9,0.9-1.9,1.4-3.2,1.4
			c-1.1,0-2-0.3-2.7-0.9c-0.7-0.6-1.1-1.4-1.1-2.4c0-1.2,0.4-2.1,1.3-2.7c0.9-0.6,2.1-1,3.7-1h1.9v-0.9c0-0.7-0.2-1.2-0.6-1.6
			s-1-0.6-1.8-0.6c-0.7,0-1.2,0.2-1.7,0.5s-0.7,0.8-0.7,1.2h-1.9c0-0.6,0.2-1.1,0.6-1.6c0.4-0.5,0.9-0.9,1.6-1.2
			c0.7-0.3,1.4-0.5,2.2-0.5c1.3,0,2.3,0.3,3,1c0.7,0.6,1.1,1.5,1.1,2.6v5.1c0,1,0.1,1.8,0.4,2.4v0.2H178.3z M175.2,112.3
			c0.6,0,1.2-0.2,1.7-0.5c0.5-0.3,0.9-0.7,1.2-1.2v-2.3h-1.5c-2.3,0-3.5,0.7-3.5,2c0,0.6,0.2,1.1,0.6,1.4S174.5,112.3,175.2,112.3z
			 M194.6,110.8c0-0.5-0.2-0.9-0.6-1.2s-1.1-0.5-2-0.7c-1-0.2-1.7-0.5-2.3-0.7c-0.6-0.3-1-0.6-1.3-1c-0.3-0.4-0.4-0.9-0.4-1.4
			c0-0.9,0.4-1.7,1.2-2.3c0.8-0.6,1.8-0.9,3-0.9c1.3,0,2.3,0.3,3.1,1s1.2,1.5,1.2,2.5h-1.9c0-0.5-0.2-1-0.7-1.3
			c-0.4-0.4-1-0.6-1.7-0.6c-0.7,0-1.2,0.2-1.6,0.5c-0.4,0.3-0.6,0.7-0.6,1.2c0,0.5,0.2,0.8,0.5,1c0.4,0.2,1,0.5,2,0.7
			c0.9,0.2,1.7,0.5,2.3,0.8c0.6,0.3,1,0.6,1.3,1.1s0.4,0.9,0.4,1.5c0,1-0.4,1.8-1.2,2.4c-0.8,0.6-1.8,0.9-3.1,0.9
			c-0.9,0-1.7-0.2-2.4-0.5s-1.2-0.8-1.6-1.3c-0.4-0.6-0.6-1.2-0.6-1.8h1.9c0,0.6,0.3,1.1,0.8,1.5s1.1,0.6,1.9,0.6
			c0.7,0,1.3-0.1,1.7-0.4C194.4,111.7,194.6,111.3,194.6,110.8z M208.4,108.3c0,1.7-0.4,3-1.2,4.1s-1.8,1.5-3.1,1.5
			c-1.3,0-2.4-0.4-3.2-1.3v5.3H199v-15.3h1.7l0.1,1.2c0.8-1,1.9-1.4,3.2-1.4c1.3,0,2.4,0.5,3.2,1.5c0.8,1,1.2,2.4,1.2,4.2V108.3z
			 M206.4,108.1c0-1.3-0.3-2.2-0.8-3c-0.5-0.7-1.3-1.1-2.2-1.1c-1.2,0-2,0.5-2.6,1.5v5.3c0.6,1,1.4,1.5,2.6,1.5
			c0.9,0,1.6-0.4,2.2-1.1C206.2,110.6,206.4,109.5,206.4,108.1z M210.3,108.1c0-1.1,0.2-2.1,0.6-2.9c0.4-0.9,1-1.5,1.8-2
			c0.8-0.5,1.6-0.7,2.6-0.7c1.5,0,2.7,0.5,3.7,1.6s1.4,2.4,1.4,4.2v0.1c0,1.1-0.2,2-0.6,2.9c-0.4,0.9-1,1.5-1.8,2s-1.7,0.7-2.7,0.7
			c-1.5,0-2.7-0.5-3.7-1.6s-1.4-2.4-1.4-4.1V108.1z M212.2,108.3c0,1.2,0.3,2.2,0.9,3c0.6,0.7,1.3,1.1,2.3,1.1c1,0,1.7-0.4,2.3-1.1
			s0.9-1.8,0.9-3.2c0-1.2-0.3-2.2-0.9-3s-1.3-1.1-2.3-1.1c-0.9,0-1.7,0.4-2.3,1.1S212.2,106.9,212.2,108.3z M228.1,104.4
			c-0.3,0-0.6-0.1-0.9-0.1c-1.2,0-2.1,0.5-2.5,1.6v7.9h-1.9v-11.1h1.9l0,1.3c0.6-1,1.5-1.5,2.7-1.5c0.4,0,0.7,0,0.8,0.1V104.4z
			 M233,100v2.7h2.1v1.5H233v6.9c0,0.4,0.1,0.8,0.3,1c0.2,0.2,0.5,0.3,0.9,0.3c0.2,0,0.5,0,0.9-0.1v1.5c-0.5,0.1-1,0.2-1.5,0.2
			c-0.8,0-1.5-0.3-1.9-0.8s-0.6-1.2-0.6-2.2v-6.9h-2v-1.5h2V100H233z M244.1,112.6c-0.7,0.9-1.8,1.3-3.3,1.3c-1.2,0-2.1-0.3-2.7-1
			s-0.9-1.7-0.9-3v-7.2h1.9v7.2c0,1.7,0.7,2.5,2.1,2.5c1.5,0,2.4-0.5,2.9-1.6v-8.1h1.9v11.1h-1.8L244.1,112.6z"/>
		<path id="Rafał-Andziak" class="st1" d="M72.9,61h-1.9v3.1H70v-7.6h2.6c0.9,0,1.6,0.2,2.1,0.6s0.7,1,0.7,1.7
			c0,0.5-0.1,0.9-0.4,1.2c-0.3,0.4-0.6,0.6-1.1,0.8l1.9,3.2v0.1h-1.1L72.9,61z M71.1,60.2h1.6c0.5,0,0.9-0.1,1.3-0.4
			c0.3-0.3,0.5-0.6,0.5-1c0-0.5-0.1-0.8-0.4-1.1c-0.3-0.2-0.7-0.4-1.3-0.4h-1.6V60.2z M80.4,64.1c-0.1-0.1-0.1-0.3-0.1-0.6
			c-0.5,0.5-1,0.7-1.7,0.7c-0.6,0-1.1-0.2-1.4-0.5c-0.4-0.3-0.6-0.7-0.6-1.2c0-0.6,0.2-1,0.7-1.4c0.5-0.3,1.1-0.5,2-0.5h1v-0.4
			c0-0.3-0.1-0.6-0.3-0.8c-0.2-0.2-0.5-0.3-0.9-0.3c-0.4,0-0.7,0.1-0.9,0.3c-0.2,0.2-0.4,0.4-0.4,0.6h-1c0-0.3,0.1-0.6,0.3-0.8
			c0.2-0.3,0.5-0.5,0.9-0.6c0.4-0.2,0.8-0.2,1.2-0.2c0.7,0,1.2,0.2,1.6,0.5c0.4,0.3,0.6,0.8,0.6,1.3v2.6c0,0.5,0.1,0.9,0.2,1.2v0.1
			H80.4z M78.8,63.4c0.3,0,0.6-0.1,0.9-0.2c0.3-0.2,0.5-0.4,0.6-0.6v-1.2h-0.8c-1.2,0-1.9,0.3-1.9,1c0,0.3,0.1,0.5,0.3,0.7
			S78.4,63.4,78.8,63.4z M83.4,64.1v-4.9h-0.9v-0.7h0.9v-0.6c0-0.6,0.2-1.1,0.5-1.4c0.3-0.3,0.8-0.5,1.4-0.5c0.2,0,0.5,0,0.7,0.1
			L86,56.9c-0.2,0-0.4,0-0.5,0c-0.3,0-0.6,0.1-0.8,0.3c-0.2,0.2-0.3,0.4-0.3,0.8v0.6h1.3v0.7h-1.3v4.9H83.4z M90.5,64.1
			c-0.1-0.1-0.1-0.3-0.1-0.6c-0.5,0.5-1,0.7-1.7,0.7c-0.6,0-1.1-0.2-1.4-0.5c-0.4-0.3-0.6-0.7-0.6-1.2c0-0.6,0.2-1,0.7-1.4
			c0.5-0.3,1.1-0.5,2-0.5h1v-0.4c0-0.3-0.1-0.6-0.3-0.8c-0.2-0.2-0.5-0.3-0.9-0.3c-0.4,0-0.7,0.1-0.9,0.3c-0.2,0.2-0.4,0.4-0.4,0.6
			h-1c0-0.3,0.1-0.6,0.3-0.8c0.2-0.3,0.5-0.5,0.9-0.6c0.4-0.2,0.8-0.2,1.2-0.2c0.7,0,1.2,0.2,1.6,0.5c0.4,0.3,0.6,0.8,0.6,1.3v2.6
			c0,0.5,0.1,0.9,0.2,1.2v0.1H90.5z M88.8,63.4c0.3,0,0.6-0.1,0.9-0.2c0.3-0.2,0.5-0.4,0.6-0.6v-1.2h-0.8c-1.2,0-1.9,0.3-1.9,1
			c0,0.3,0.1,0.5,0.3,0.7S88.5,63.4,88.8,63.4z M94.2,59.6l0.9-0.3v0.6l-0.9,0.3v3.9h-1v-3.5l-0.8,0.3v-0.6l0.8-0.3v-3.8h1V59.6z
			 M103.3,62.1H100l-0.8,2h-1.1l3.1-7.6h0.9l3.1,7.6h-1.1L103.3,62.1z M100.3,61.3h2.7l-1.4-3.5L100.3,61.3z M107.1,58.5l0,0.7
			c0.5-0.5,1-0.8,1.8-0.8c1.3,0,1.9,0.7,1.9,2v3.7h-1v-3.7c0-0.4-0.1-0.7-0.3-0.9c-0.2-0.2-0.5-0.3-0.9-0.3c-0.3,0-0.6,0.1-0.9,0.2
			c-0.2,0.2-0.4,0.4-0.6,0.7v4h-1v-5.6H107.1z M112.1,61.2c0-0.9,0.2-1.6,0.6-2.1c0.4-0.5,1-0.8,1.7-0.8c0.7,0,1.2,0.2,1.7,0.7v-2.9
			h1v8h-0.9l0-0.6c-0.4,0.5-1,0.7-1.7,0.7c-0.7,0-1.3-0.3-1.7-0.8C112.3,62.9,112.1,62.2,112.1,61.2L112.1,61.2z M113.1,61.3
			c0,0.6,0.1,1.1,0.4,1.5s0.7,0.5,1.2,0.5c0.6,0,1.1-0.3,1.4-0.8V60c-0.3-0.5-0.8-0.8-1.4-0.8c-0.5,0-0.9,0.2-1.2,0.5
			C113.2,60.1,113.1,60.6,113.1,61.3z M119.6,63.3h3.5v0.8h-4.7v-0.7l3.3-4.1h-3.2v-0.8h4.5v0.7L119.6,63.3z M125.3,64.1h-1v-5.6h1
			V64.1z M124.2,57c0-0.2,0.1-0.3,0.2-0.4c0.1-0.1,0.3-0.2,0.4-0.2c0.2,0,0.3,0.1,0.5,0.2c0.1,0.1,0.2,0.2,0.2,0.4s-0.1,0.3-0.2,0.4
			c-0.1,0.1-0.3,0.2-0.5,0.2c-0.2,0-0.3-0.1-0.4-0.2S124.2,57.1,124.2,57z M130.6,64.1c-0.1-0.1-0.1-0.3-0.1-0.6
			c-0.5,0.5-1,0.7-1.7,0.7c-0.6,0-1.1-0.2-1.4-0.5c-0.4-0.3-0.6-0.7-0.6-1.2c0-0.6,0.2-1,0.7-1.4c0.5-0.3,1.1-0.5,2-0.5h1v-0.4
			c0-0.3-0.1-0.6-0.3-0.8c-0.2-0.2-0.5-0.3-0.9-0.3c-0.4,0-0.7,0.1-0.9,0.3c-0.2,0.2-0.4,0.4-0.4,0.6h-1c0-0.3,0.1-0.6,0.3-0.8
			c0.2-0.3,0.5-0.5,0.9-0.6c0.4-0.2,0.8-0.2,1.2-0.2c0.7,0,1.2,0.2,1.6,0.5c0.4,0.3,0.6,0.8,0.6,1.3v2.6c0,0.5,0.1,0.9,0.2,1.2v0.1
			H130.6z M128.9,63.4c0.3,0,0.6-0.1,0.9-0.2c0.3-0.2,0.5-0.4,0.6-0.6v-1.2h-0.8c-1.2,0-1.9,0.3-1.9,1c0,0.3,0.1,0.5,0.3,0.7
			C128.3,63.3,128.6,63.4,128.9,63.4z M134.7,61.5l-0.6,0.6v2h-1v-8h1v4.8l0.5-0.6l1.9-1.9h1.2l-2.3,2.4l2.6,3.3h-1.2L134.7,61.5z"
			/>
		<path id="Combined-Shape" class="st2" d="M27.9,31.3L14.4,64.4L0,62C0,62,11.1,50.3,27.9,31.3z M56.2,42.7c1.1,1.1,1,2.9-0.1,4
			L44.7,57.4c-0.5,0.5-1.2,0.8-1.9,0.8c-0.4,0-0.8-0.1-1.2-0.3c-1-0.5-1.7-1.5-1.6-2.7l0.3-6.2l-3.1,6.6c0.3,0.1,0.7,0.2,1,0.4
			c2,1.2,2.7,3.8,1.5,5.8L30,78.4c-0.8,1.3-2.2,2.1-3.7,2.1c-0.7,0-1.5-0.2-2.1-0.6c-2-1.2-2.7-3.8-1.5-5.8l6.6-11.4l-3-1.5
			l-12.9,36c-0.6,1.7-2.2,2.8-4,2.8c-0.5,0-1-0.1-1.4-0.3c-2.2-0.8-3.3-3.2-2.6-5.4l13-36.3c0.1-0.2,0.2-0.4,0.3-0.6l0,0l10-23.9
			c0-0.1,0-0.1,0-0.2L40.3,1.9c0.5-1.5,2.2-2.2,3.6-1.7c1.5,0.5,2.2,2.2,1.7,3.6l-6.1,16.7c2-1.3,4.6-1.5,6.8-0.4
			c3.6,1.7,5.1,5.9,3.4,9.5c-1.7,3.6-5.9,5.1-9.5,3.4c-1.9-0.9-3.2-2.5-3.8-4.3l-1.6,4.3l8,3c0.2-0.1,0.5-0.1,0.8-0.1
			c1.6,0.1,2.8,1.4,2.7,3l-0.4,9.6l6.4-6C53.4,41.5,55.2,41.6,56.2,42.7z"/>
	</g>
</g>
</svg>
