<?xml version="1.0" encoding="utf-8"?>
<!-- Generator: Adobe Illustrator 19.2.1, SVG Export Plug-In . SVG Version: 6.00 Build 0)  -->
<svg version="1.1" id="Layer_1" xmlns="http://www.w3.org/2000/svg" xmlns:xlink="http://www.w3.org/1999/xlink" x="0px" y="0px"
	 viewBox="0 0 48 48" style="enable-background:new 0 0 48 48;" xml:space="preserve">
<g>
	<path d="M27.8,13.7c0-2.1-1.7-3.8-3.8-3.8c-2.1,0-3.8,1.7-3.8,3.8c0,2.1,1.7,3.8,3.8,3.8C26.1,17.4,27.8,15.7,27.8,13.7L27.8,13.7z
		"/>
</g>
<path d="M14.2,31.2c1-2.2,0.2-4.9-1.8-6.2l-4.8-3.1c-0.3-0.2-0.4-0.5-0.4-0.8c0-0.5,0.4-0.9,0.9-0.9h7.1c0.4,0,0.7,0.2,0.9,0.6
	l2.2,5.7c0.3,0.9,0.9,1.6,1.7,2.2C18.1,29.8,16.2,30.6,14.2,31.2z M6.6,33.2l-3.3,5h6.3l3.4-5.3c3-0.6,5.9-1.8,8.4-3.5
	c0.5,0.1,1,0.2,1.5,0.2l6.2,0l2.6,0l0-2.6c0-1.5-1.2-2.6-2.7-2.6l-2.5,0c0.5-0.7,0.9-1.4,1.3-2.1c2.2-3.9,5.2-7.2,9-9.6l9.2,13.5
	l-2,2.6l-8.7-5L34.7,25l9.8,5.6l3.5-4.5L37.3,10.6c-4.5,2.6-8.2,6.4-10.7,10.9c-0.6,1-1.2,1.9-1.9,2.8l-1,0c-0.4,0-0.7-0.2-0.9-0.6
	L20.6,18c-0.7-1.9-2.6-3.2-4.7-3.2H7.4c-3.3,0-6.1,2.7-6.1,6c0,2.1,1,4,2.8,5.1l4.3,2.8C8.8,29,9,29.6,8.7,30l-1.2,1.8
	C5.1,31.6,2.8,31,0.6,30L0,31.4C2.1,32.3,4.3,33,6.6,33.2z"/>
<g>
	<path d="M32.5,38.3l1.5,0c0.1-3.8,1.1-7.6,2.8-11l-1.3-0.7C33.6,30.2,32.6,34.2,32.5,38.3z"/>
</g>
</svg>
