<?xml version="1.0" encoding="utf-8"?>
<!-- Generator: Adobe Illustrator 19.2.1, SVG Export Plug-In . SVG Version: 6.00 Build 0)  -->
<svg version="1.1" id="Layer_1" xmlns="http://www.w3.org/2000/svg" xmlns:xlink="http://www.w3.org/1999/xlink" x="0px" y="0px"
	 viewBox="0 0 48 48" style="enable-background:new 0 0 48 48;" xml:space="preserve">
<path d="M17.4,22.7c0,4-3.2,7.2-7.2,7.2s-7.2-3.2-7.2-7.2c0-4,3.2-7.2,7.2-7.2S17.4,18.7,17.4,22.7L17.4,22.7z M19.6,22.7
	c0-5.2-4.2-9.4-9.4-9.4c-5.2,0-9.4,4.2-9.4,9.4c0,5.2,4.2,9.4,9.4,9.4C15.4,32.2,19.6,27.9,19.6,22.7L19.6,22.7z"/>
<path d="M45.1,32c0,4-3.2,7.2-7.2,7.2c-4,0-7.2-3.2-7.2-7.2c0-4,3.2-7.2,7.2-7.2C41.8,24.8,45.1,28,45.1,32L45.1,32z M47.3,32
	c0-5.2-4.2-9.4-9.4-9.4c-5.2,0-9.4,4.2-9.4,9.4c0,5.2,4.2,9.4,9.4,9.4C43.1,41.4,47.3,37.2,47.3,32L47.3,32z"/>
<g>
	<path d="M46.6,7.5c0-2-1.7-3.7-3.7-3.7c-2,0-3.7,1.7-3.7,3.7c0,2,1.7,3.7,3.7,3.7C45,11.2,46.6,9.5,46.6,7.5L46.6,7.5z"/>
</g>
<g>
	<path d="M27,9.7l-0.1,21.9L21.7,30l0.1-21.9c0-0.5,0.1-1,0.2-1.4c0.8-2.6,3.6-4,6.1-3.2l7,2.2c2,0.6,3.3,2.4,3.4,4.4l0.2,4.9
		c0,0.4,0.3,0.7,0.6,0.8l3.8,1.2c1.4,0.4,2.1,1.9,1.7,3.3l-0.8,2.5L41.7,22l-4.6-1.5c-2-0.6-3.3-2.4-3.4-4.4l-0.2-4.9
		c0-0.4-0.3-0.7-0.6-0.8l-4.6-1.5c-0.5-0.2-1,0.1-1.1,0.6C27,9.5,27,9.6,27,9.7z"/>
</g>
<g>
	<polygon points="35.2,44.9 34.3,46.1 26.5,39.5 20,41.3 7.1,34.8 7.7,33.5 20.2,39.7 26.9,37.9 	"/>
</g>
</svg>
