<?xml version="1.0" encoding="utf-8"?>
<!-- Generator: Adobe Illustrator 19.2.1, SVG Export Plug-In . SVG Version: 6.00 Build 0)  -->
<svg version="1.1" id="Layer_1" xmlns="http://www.w3.org/2000/svg" xmlns:xlink="http://www.w3.org/1999/xlink" x="0px" y="0px"
	 viewBox="0 0 48 48" style="enable-background:new 0 0 48 48;" xml:space="preserve">
<g>
	<path d="M31.6,4.4c0-2.4-2-4.4-4.4-4.4c-2.4,0-4.4,2-4.4,4.4c0,2.4,2,4.4,4.4,4.4C29.7,8.8,31.6,6.8,31.6,4.4L31.6,4.4z"/>
</g>
<g>
	<path d="M23,34.3l-6,6.5l4.5,4.2l6.9-7.4c2-2.2,2.1-5.6,0.1-7.8l-4.9-5.6c-1.1-1.3-3.1-1.4-4.4-0.3C18,25,17.9,27,19,28.3l4.1,4.6
		C23.4,33.2,23.4,33.9,23,34.3z"/>
</g>
<g>
	<path d="M23.2,16.4L18.2,22c-0.9,1.1-1.5,2.4-1.5,3.9l0,8.9c0,1-0.3,2-0.7,2.8L10.3,48H3.2L9.8,36c0.5-0.9,0.7-1.8,0.7-2.8l0-9.7
		c0-1.4,0.5-2.8,1.5-3.9l7.4-8.3c1.7-1.9,4.5-2.5,6.8-1.4L42,17.4l2.8,1.3l-1.3,2.8c-0.7,1.6-2.6,2.2-4.1,1.5l-14.9-7
		C24.1,15.9,23.5,16,23.2,16.4z"/>
</g>
<path d="M41.9,29.9c0,1.9-1.5,3.4-3.4,3.4c-1.9,0-3.4-1.5-3.4-3.4c0-1.9,1.5-3.4,3.4-3.4C40.3,26.5,41.9,28,41.9,29.9L41.9,29.9z
	 M43.4,29.9c0-2.8-2.2-5-5-5c-2.8,0-5,2.2-5,5c0,2.8,2.2,5,5,5C41.2,34.9,43.4,32.7,43.4,29.9L43.4,29.9z"/>
</svg>
