<?xml version="1.0" encoding="utf-8"?>
<!-- Generator: Adobe Illustrator 23.0.1, SVG Export Plug-In . SVG Version: 6.00 Build 0)  -->
<svg version="1.1" id="Warstwa_1" xmlns="http://www.w3.org/2000/svg" xmlns:xlink="http://www.w3.org/1999/xlink" x="0px" y="0px"
	 viewBox="0 0 79.7 99.8" style="enable-background:new 0 0 79.7 99.8;" xml:space="preserve">
<path d="M74.1,19.2c-11-0.9-21.3-5.6-29.1-13.4l-2-2.1c-0.8-0.8-1.9-1.2-3-1.2s-2.2,0.4-3,1.2l-2,2.1c-7.8,7.8-18.1,12.5-29.1,13.4
	c-2.2,0.2-3.9,2-3.9,4.2v12.1c0,25.4,13.8,49,35.9,61.5c0.6,0.4,1.4,0.5,2.1,0.5c0.7,0,1.4-0.2,2.1-0.5C64.2,84.5,78,60.9,78,35.5
	V23.4C78,21.2,76.3,19.4,74.1,19.2z M58.3,41.9L39.6,62.2c-0.8,0.8-1.9,1.3-3,1.4h-0.1c-1.1,0-2.2-0.4-3-1.2L23,51.7
	c-1.6-1.6-1.6-4.3,0-5.9c1.6-1.6,4.3-1.6,5.9,0l7.5,7.5l15.7-17.1c1.6-1.7,4.2-1.8,5.9-0.3C59.7,37.5,59.8,40.2,58.3,41.9z"/>
</svg>
