<?xml version="1.0" encoding="utf-8"?>
<!-- Generator: Adobe Illustrator 19.2.1, SVG Export Plug-In . SVG Version: 6.00 Build 0)  -->
<svg version="1.1" id="Layer_1" xmlns="http://www.w3.org/2000/svg" xmlns:xlink="http://www.w3.org/1999/xlink" x="0px" y="0px"
	 viewBox="0 0 48 48" style="enable-background:new 0 0 48 48;" xml:space="preserve">
<g>
	<path d="M35,4.2c0-2.3-1.8-4.1-4.1-4.1c-2.3,0-4.1,1.8-4.1,4.1c0,2.3,1.8,4.1,4.1,4.1C33.2,8.3,35,6.4,35,4.2L35,4.2z"/>
</g>
<g>
	<path d="M36.7,30.9l-5.4-5c-1.2-1.1-3-1-4.1,0.2c-1.1,1.2-1,3,0.2,4.1l3.1,2.9c1.3,1.2,2,3,1.7,4.8l-1.5,9.8h5.9l1.8-12
		C38.7,34,38,32.1,36.7,30.9z"/>
</g>
<g>
	<path d="M23.4,15.9l-7.3,15.2c-0.2,0.4-0.7,0.7-1.2,0.5L4.5,28.7l-1.6,5.6l11.5,3.2c2.6,0.7,5.3-0.5,6.4-2.9l9-18.7
		c0.2-0.4,0.6-0.6,1-0.6l3.9,0.4c1.4,0.2,2.9-0.3,4-1.1l5.2-4.1c1.3-1,1.5-2.8,0.5-4.1l-1.8-2.3L40.4,6L37,8.6
		c-1.1,0.9-2.6,1.3-4,1.1L18.6,8.2c-1.3-0.1-2.7,0.2-3.8,1l-4.6,3.3c-1.3,0.9-1.6,2.8-0.7,4.1l1.7,2.4l2.4-1.7l2.8-2
		c1.1-0.8,2.4-1.1,3.8-1l2.4,0.3c0.1,0,0.2,0,0.3,0.1C23.4,14.8,23.7,15.4,23.4,15.9z"/>
</g>
<path d="M28.4,43.3c0,1.8-1.4,3.2-3.2,3.2c-1.8,0-3.2-1.4-3.2-3.2c0-1.8,1.4-3.2,3.2-3.2C27,40,28.4,41.5,28.4,43.3L28.4,43.3z
	 M29.9,43.3c0-2.6-2.1-4.7-4.7-4.7c-2.6,0-4.7,2.1-4.7,4.7c0,2.6,2.1,4.7,4.7,4.7C27.8,47.9,29.9,45.8,29.9,43.3L29.9,43.3z"/>
</svg>
