<?xml version="1.0" encoding="utf-8"?>
<!-- Generator: Adobe Illustrator 19.2.1, SVG Export Plug-In . SVG Version: 6.00 Build 0)  -->
<svg version="1.1" id="Layer_1" xmlns="http://www.w3.org/2000/svg" xmlns:xlink="http://www.w3.org/1999/xlink" x="0px" y="0px"
	 viewBox="0 0 48 48" style="enable-background:new 0 0 48 48;" xml:space="preserve">
<g>
	<path d="M32.7,14.5c0-2.1-1.7-3.8-3.8-3.8s-3.8,1.7-3.8,3.8c0,2.1,1.7,3.8,3.8,3.8S32.7,16.6,32.7,14.5L32.7,14.5z"/>
</g>
<g>
	<path d="M35.3,22.6l-4.3-2.1c-1.3-0.6-2.9-0.1-3.6,1.3c-0.6,1.3-0.1,2.9,1.3,3.6l4.9,2.3c1.4,0.7,3.1,0.7,4.5-0.1l5-2.6
		c1.3-0.7,1.8-2.3,1.1-3.6L42.9,19l-2.4,1.2l-4.4,2.3C35.8,22.7,35.5,22.7,35.3,22.6z"/>
</g>
<g>
	<path d="M10.4,26.3C6.6,27,3,28.6,0,31l0.9,1.2c6.4-5.1,15-6.3,22.5-3.1c3.1,1.3,6.4,2.2,9.8,2.7c5.1,0.8,10.2-0.1,14.7-2.5
		L47.3,28c-4.2,2.2-9.1,3.1-13.8,2.4c-3.2-0.5-6.4-1.4-9.4-2.6c-1-0.4-2-0.8-3-1l2.6-1.4c2.5-1.3,3.4-4.4,2-6.8
		c-0.4-0.8-1.1-1.5-1.9-2l-5.4-3.1c-1.4-0.8-3.2-0.9-4.7-0.2l-6.1,2.9l-2.4,1.2l1.2,2.4C7,21,8.6,21.6,9.9,20.9l5.5-2.7
		c0.3-0.1,0.6-0.1,0.9,0l2.8,1.6c0.1,0.1,0.3,0.2,0.4,0.4c0.2,0.5,0.1,1-0.4,1.3L10.4,26.3z"/>
</g>
<g>
	<path d="M48,34.3c-4.5,2.4-9.7,3.3-14.7,2.5c-3.4-0.5-6.7-1.4-9.8-2.7C15.9,31,7.3,32.2,0.9,37.3L0,36.1c6.8-5.4,16-6.7,24-3.3
		c3,1.3,6.2,2.1,9.4,2.6c4.7,0.7,9.6-0.1,13.8-2.4L48,34.3z"/>
</g>
</svg>
