<?xml version="1.0" encoding="utf-8"?>
<!-- Generator: Adobe Illustrator 19.2.1, SVG Export Plug-In . SVG Version: 6.00 Build 0)  -->
<svg version="1.1" id="Layer_1" xmlns="http://www.w3.org/2000/svg" xmlns:xlink="http://www.w3.org/1999/xlink" x="0px" y="0px"
	 viewBox="0 0 48 48" style="enable-background:new 0 0 48 48;" xml:space="preserve">
<path d="M17.7,33.4c0,4.4-3.5,7.9-7.9,7.9c-4.4,0-7.9-3.5-7.9-7.9c0-4.4,3.5-7.9,7.9-7.9C14.2,25.6,17.7,29.1,17.7,33.4L17.7,33.4z
	 M19.5,33.4c0-5.4-4.4-9.7-9.7-9.7c-5.4,0-9.7,4.3-9.7,9.7c0,5.4,4.3,9.7,9.7,9.7C15.2,43.2,19.5,38.8,19.5,33.4L19.5,33.4z"/>
<path d="M46.1,33.4c0,4.4-3.5,7.9-7.9,7.9c-4.4,0-7.9-3.5-7.9-7.9c0-4.4,3.5-7.9,7.9-7.9C42.6,25.6,46.1,29.1,46.1,33.4L46.1,33.4z
	 M47.9,33.4c0-5.4-4.3-9.7-9.7-9.7c-5.4,0-9.7,4.3-9.7,9.7c0,5.4,4.3,9.7,9.7,9.7C43.6,43.2,47.9,38.8,47.9,33.4L47.9,33.4z"/>
<g>
	<path d="M39.4,8.5c0-2-1.7-3.7-3.7-3.7c-2,0-3.7,1.7-3.7,3.7s1.7,3.7,3.7,3.7C37.7,12.2,39.4,10.6,39.4,8.5L39.4,8.5z"/>
</g>
<g>
	<path d="M21.1,15.5l6.5,20.9h-5.4l-6.5-20.9c-0.1-0.5-0.2-1-0.2-1.5c0-2.7,2.2-4.9,4.9-4.9h7.4c2.1,0,3.9,1.3,4.6,3.2l1.7,4.6
		c0.1,0.4,0.5,0.6,0.9,0.6l4,0c1.4,0,2.6,1.2,2.6,2.6l0,2.6h-2.6l-4.9,0c-2,0-3.9-1.3-4.6-3.2l-1.7-4.6c-0.1-0.4-0.5-0.6-0.9-0.6H22
		c-0.5,0-0.9,0.4-0.9,0.9C21.1,15.3,21.1,15.4,21.1,15.5z"/>
</g>
</svg>
