<?xml version="1.0" encoding="utf-8"?>
<!-- Generator: Adobe Illustrator 19.2.1, SVG Export Plug-In . SVG Version: 6.00 Build 0)  -->
<svg version="1.1" id="Layer_1" xmlns="http://www.w3.org/2000/svg" xmlns:xlink="http://www.w3.org/1999/xlink" x="0px" y="0px"
	 viewBox="0 0 48 48" style="enable-background:new 0 0 48 48;" xml:space="preserve">
<g>
	<path d="M26.9,4.6c0-2.4-2-4.4-4.4-4.4c-2.4,0-4.4,2-4.4,4.4c0,2.4,2,4.4,4.4,4.4S26.9,7.1,26.9,4.6L26.9,4.6z"/>
</g>
<g>
	<path d="M9,37.9l-9,4.2l2.7,5.6l9.5-4.5c1.3-0.6,2.4-1.7,2.9-3.1l2.6-6.3c0.7-1.6-0.1-3.4-1.7-4.1c-1.6-0.7-3.4,0.1-4.1,1.7
		l-2.4,5.8C9.4,37.6,9.2,37.8,9,37.9z"/>
</g>
<g>
	<path d="M26.4,32.7l-8.2-3.6c-2.9-1.3-4.3-4.7-3-7.7l3.3-7.9c1.2-2.9,4.6-4.4,7.5-3.2l16.4,6.3l2.9,1.1l-1.1,2.9
		c-0.6,1.6-2.4,2.4-4,1.8l-15.1-5.8c-0.6-0.2-1.2,0.1-1.4,0.6l-2.2,5.3c-0.2,0.5,0,1.2,0.6,1.4l7.6,3.4c1.9,0.8,3.2,2.6,3.5,4.6
		l2,15.5h-6.3l-1.8-13.9C27,33.2,26.8,32.9,26.4,32.7z"/>
</g>
<path d="M46.4,9.2c0,1.9-1.6,3.5-3.5,3.5c-1.9,0-3.5-1.6-3.5-3.5c0-1.9,1.6-3.5,3.5-3.5C44.9,5.7,46.4,7.3,46.4,9.2L46.4,9.2z
	 M48,9.2c0-2.8-2.3-5-5-5s-5,2.3-5,5c0,2.8,2.3,5,5,5C45.7,14.3,48,12,48,9.2L48,9.2z"/>
</svg>
