<?xml version="1.0" encoding="utf-8"?>
<!-- Generator: Adobe Illustrator 19.2.1, SVG Export Plug-In . SVG Version: 6.00 Build 0)  -->
<svg version="1.1" id="Layer_1" xmlns="http://www.w3.org/2000/svg" xmlns:xlink="http://www.w3.org/1999/xlink" x="0px" y="0px"
	 viewBox="0 0 48 48" style="enable-background:new 0 0 48 48;" xml:space="preserve">
<g>
	<path d="M27.5,13.5c0-2-1.6-3.5-3.5-3.5c-2,0-3.5,1.6-3.5,3.5c0,2,1.6,3.5,3.5,3.5C26,17,27.5,15.4,27.5,13.5L27.5,13.5z"/>
</g>
<g>
	<path d="M33.1,38.9l1.4,9.1h5.1l-1.7-10.5c-0.2-1.6-1.3-2.9-2.7-3.6L31,32c-1.3-0.6-2.7,0-3.3,1.3c-0.6,1.3,0,2.7,1.3,3.3l3.6,1.6
		C32.9,38.4,33.1,38.6,33.1,38.9z"/>
</g>
<g>
	<path d="M9,8.5h5l0.8,6.9c0,0.3,0.3,0.6,0.6,0.7l7.1,2.4c1,0.3,2,0.3,3,0l7.1-2.4c0.3-0.1,0.6-0.4,0.6-0.7l0.7-6.9h5l-0.9,8.2
		c-0.2,1.8-1.4,3.4-3.2,4L27,23.3c-0.4,0.1-0.6,0.5-0.6,0.8v7.5c0,1.1-0.4,2.2-1.1,3L14.1,48H7.6l12.7-15.1c0.7-0.8,1.1-1.9,1.1-3
		v-5.8c0-0.4-0.2-0.7-0.6-0.8l-7.7-2.6c-1.7-0.6-3-2.1-3.2-4L9,8.5z"/>
</g>
<g>
	<path d="M42.2,11.9V7.4H5.8v4.5c0,0.9-0.7,1.5-1.5,1.5c-0.9,0-1.5-0.7-1.5-1.5V1.5C2.7,0.7,3.4,0,4.2,0c0.9,0,1.5,0.7,1.5,1.5V6
		h36.4V1.5c0-0.9,0.7-1.5,1.5-1.5c0.9,0,1.5,0.7,1.5,1.5v10.4c0,0.9-0.7,1.5-1.5,1.5C42.9,13.5,42.2,12.8,42.2,11.9z"/>
</g>
</svg>
