<?xml version="1.0" encoding="utf-8"?>
<!-- Generator: Adobe Illustrator 19.2.1, SVG Export Plug-In . SVG Version: 6.00 Build 0)  -->
<svg version="1.1" id="Layer_1" xmlns="http://www.w3.org/2000/svg" xmlns:xlink="http://www.w3.org/1999/xlink" x="0px" y="0px"
	 viewBox="0 0 48 48" style="enable-background:new 0 0 48 48;" xml:space="preserve">
<g>
	<path d="M28.4,22.4c0-1.9-1.5-3.4-3.4-3.4c-1.9,0-3.4,1.5-3.4,3.4c0,1.9,1.5,3.4,3.4,3.4C26.9,25.8,28.4,24.3,28.4,22.4L28.4,22.4z
		"/>
</g>
<g>
	<path d="M31,17.4l-5.7-2.6l2.6-4.1l6.1,2.7c2.2,1,3.2,3.5,2.4,5.7l-1.9,5.2c-0.5,1.3-1.9,1.9-3.1,1.4c-1.3-0.5-1.9-1.9-1.4-3.1
		l1.6-4.2C31.6,18.1,31.4,17.6,31,17.4z"/>
</g>
<g>
	<path d="M45.7,45.4c-4.1,2.2-8.8,3-13.3,2.3c-3-0.5-6-1.3-8.9-2.5C16.7,42.4,8.9,43.4,3.2,48l-0.9-1.1c6.2-4.9,14.5-6,21.7-3
		c2.7,1.1,5.6,1.9,8.5,2.4c4.3,0.6,8.7-0.1,12.5-2.1L45.7,45.4z"/>
</g>
<g>
	<path d="M27,7.6C26.9,7.6,26.9,7.6,27,7.6c-0.2-0.4-0.2-0.7-0.2-1.1c0-0.4,0.1-0.8,0.2-1.2c0.2-0.5,0.4-0.9,0.6-1.3
		c0,0,1.9-3,1.9-3c0.6-1,1.9-1.3,2.8-0.7c1,0.6,1.3,1.9,0.7,2.8l-1.9,3c-0.3,0.4-0.6,0.8-0.9,1.1c-0.6,0.5-1.3,0.8-2,1c0,0,0,0,0,0
		L13.2,32.4c0,0,0,0,0,0c0.2,0.7,0.1,1.5,0,2.2c-0.2,0.5-0.4,0.9-0.6,1.3c0,0-1.4,2.2-1.4,2.2c4.3-0.9,8.8-0.5,12.9,1.2
		c2.7,1.1,5.6,1.9,8.5,2.4c2,0.3,4,0.3,5.9,0c-7.1-3.6-15.1-5.3-23.1-4.8l-0.1-1.4c4.4-0.2,8.8,0.2,13.1,1.1L28,32.5
		c-0.1-0.5-0.5-0.8-0.9-0.7c-0.2,0-0.3,0.1-0.5,0.2l-1.8,1.7c-1.3,1.2-3.2,1.6-4.9,0.9l-5.3-2.3l2.6-4.2l3.9,1.7
		c0.3,0.1,0.7,0.1,0.9-0.2l2.9-2.7c0.7-0.7,1.6-1.1,2.6-1.2c2.5-0.3,4.8,1.5,5.1,4l1,8.4c2.5,0.9,4.9,1.9,7.1,3.2
		c1.5-0.4,3-1,4.4-1.7l0.6,1.2c-4.1,2.2-8.8,3-13.3,2.3c-3-0.5-6-1.3-8.9-2.5c-6.8-2.8-14.6-1.7-20.3,2.8l-0.9-1.1
		c1.6-1.3,3.3-2.3,5.2-3c-0.6-0.7-0.7-1.7-0.3-2.5l1.9-3c0.3-0.4,0.6-0.8,0.9-1.1c0.3-0.3,0.6-0.5,0.9-0.7c0.3-0.2,0.7-0.3,1.1-0.3
		c0,0,0,0,0,0L27,7.6z"/>
</g>
</svg>
