<?xml version="1.0" encoding="utf-8"?>
<!-- Generator: Adobe Illustrator 23.0.1, SVG Export Plug-In . SVG Version: 6.00 Build 0)  -->
<svg version="1.1" id="Warstwa_1" xmlns="http://www.w3.org/2000/svg" xmlns:xlink="http://www.w3.org/1999/xlink" x="0px" y="0px"
	 viewBox="0 0 84 84" style="enable-background:new 0 0 84 84;" xml:space="preserve">
<g id="Page-1">
	<path id="Shape" d="M78.1,28.7c-2,0-3.6,0.8-4.7,2.2H52.6l-6.8-21c1.3-1,2-2.5,2-4.3c0-3.3-2.5-5.6-5.9-5.6c-3.3,0-5.8,2.4-5.8,5.6
		c0,1.8,0.8,3.3,2,4.3l-6.8,21H10.5c-1-1.4-2.7-2.2-4.7-2.2c-3.3,0-5.8,2.4-5.8,5.6c0,3.3,2.4,5.6,5.8,5.6h0h0c1,0,1.9-0.2,2.7-0.6
		l16.3,11.8l-7.1,21.7c-3.1,0.2-5.4,2.5-5.4,5.5c0,3.3,2.4,5.6,5.8,5.6h0h0c3.4-0.1,5.8-2.4,5.8-5.6c0-0.6-0.1-1.1-0.2-1.6L42,63.6
		L60.4,77c-0.1,0.4-0.2,0.9-0.2,1.4c0,3.3,2.4,5.6,5.8,5.6h0h0c3.4-0.1,5.8-2.4,5.8-5.6c0-3.2-2.3-5.5-5.6-5.6l-7.1-21.7l16.3-11.8
		c0.8,0.4,1.7,0.6,2.7,0.6h0h0c3.4-0.1,5.8-2.4,5.8-5.6C84,31,81.5,28.7,78.1,28.7z M42,57.5L42,57.5L42,57.5
		c-6.5,0-11.2-4.6-11.2-10.9c0-6.1,4.8-10.7,11.2-10.7c6.5,0,11.3,4.6,11.3,10.9C53.2,53,48.6,57.4,42,57.5z"/>
</g>
</svg>
