<?xml version="1.0" encoding="utf-8"?>
<!-- Generator: Adobe Illustrator 23.0.1, SVG Export Plug-In . SVG Version: 6.00 Build 0)  -->
<svg version="1.1" id="Warstwa_1" xmlns="http://www.w3.org/2000/svg" xmlns:xlink="http://www.w3.org/1999/xlink" x="0px" y="0px"
	 viewBox="0 0 68 100" style="enable-background:new 0 0 68 100;" xml:space="preserve">
<style type="text/css">
	.st0{fill-rule:evenodd;clip-rule:evenodd;}
</style>
<g id="Page-1">
	<path id="Combined-Shape" class="st0" d="M30.3,82L34,60.4L37.7,82c-1.3-0.1-2.6-0.1-3.7-0.1C32.8,81.9,31.6,81.9,30.3,82z
		 M51.9,51.5c2.9-2,5.2-3.9,6.9-5.9C65.2,64.5,68,86.3,68,86.3s-7.8-1.6-16.7-2.9l-5.7-32.9c0.9,1.1,2.2,1.8,3.7,1.8
		C50.2,52.3,51.1,52,51.9,51.5z M16.7,83.4C7.8,84.7,0,86.3,0,86.3s2.8-21.7,9.2-40.7c1.7,2,4,3.9,6.9,5.9c0.8,0.5,1.7,0.8,2.6,0.8
		c1.4,0,2.8-0.7,3.7-1.8L16.7,83.4z M52.3,38.9c-0.8,1.1-2.4,2.8-5.6,5c-0.2,0.1-0.3,0.2-0.5,0.4l3.1-12.9c0.1,0.1,0.3,0.2,0.4,0.3
		c1.2,0.8,2.2,1.8,2.8,2.6c0.6,0.8,0.8,1.4,0.8,2.1C53.3,36.8,53.2,37.6,52.3,38.9z M15.6,34.1c0.7-0.9,1.8-1.9,3.2-2.8l3.1,12.9
		c-0.2-0.1-0.3-0.3-0.5-0.4c-3.2-2.2-4.8-3.9-5.6-5c-0.9-1.3-1.1-2.1-1.1-2.6C14.7,35.6,14.9,34.9,15.6,34.1z M43.3,11.6
		c-1.2,5.1-6.3,8.2-11.4,7c-5.1-1.2-8.3-6.3-7.1-11.3c1.2-5.1,6.3-8.2,11.4-7C41.3,1.4,44.5,6.5,43.3,11.6z M16.6,50.8
		c-3.5-2.3-6-4.6-7.8-7c-1.7-2.4-2.7-5-2.6-7.5c0-2.9,1.2-5.4,2.6-7.3c1.5-1.9,3.3-3.4,5-4.5c3.4-2.3,6.6-3.4,6.8-3.5
		c0.5-0.2,1.1-0.3,1.6-0.2c0.2,0,0.4-0.1,0.6-0.1h22.4c0.2,0,0.4,0,0.6,0.1c0.5,0,1.1,0,1.6,0.2c0.1,0,2,0.7,4.3,2
		c2.3,1.3,5.2,3.2,7.4,6c1.5,1.9,2.6,4.4,2.6,7.3c0,2.5-0.9,5.1-2.6,7.5c-1.7,2.4-4.3,4.7-7.8,7c-0.7,0.4-1.4,0.6-2.1,0.6
		c-1.2,0-2.4-0.6-3.2-1.7c-1.2-1.7-0.7-4.1,1-5.2c3-2,4.8-3.8,5.8-5.2c1-1.4,1.2-2.4,1.2-3.1c0-0.8-0.3-1.6-1-2.6
		c-0.7-1-1.8-1.9-3-2.8c-0.5-0.3-1-0.6-1.5-0.9l-4.4,18.4c0.1,0.2,0.1,0.4,0.1,0.6l7.7,44.4c0.5,3.1-1.6,6-4.7,6.5
		c-0.3,0.1-0.7,0.1-1,0.1c-2.7,0-5.2-1.9-5.6-4.7l-6.6-38.1h-0.6l-6.6,38.1c-0.5,2.8-2.9,4.7-5.6,4.7c-0.3,0-0.6,0-1-0.1
		c-3.1-0.5-5.2-3.5-4.7-6.5L23.5,49c0-0.2,0.1-0.4,0.1-0.6L19.3,30c-1.7,1-3.4,2.3-4.4,3.6c-0.8,1-1.1,1.9-1.1,2.7
		c0,0.7,0.2,1.7,1.2,3.1c1,1.4,2.8,3.2,5.8,5.2c1.7,1.2,2.2,3.5,1,5.2c-0.7,1.1-1.9,1.7-3.2,1.7C18,51.5,17.2,51.3,16.6,50.8z"/>
</g>
</svg>
