<?xml version="1.0" encoding="utf-8"?>
<!-- Generator: Adobe Illustrator 23.0.1, SVG Export Plug-In . SVG Version: 6.00 Build 0)  -->
<svg version="1.1" id="Warstwa_1" xmlns="http://www.w3.org/2000/svg" xmlns:xlink="http://www.w3.org/1999/xlink" x="0px" y="0px"
	 viewBox="0 0 57 100" style="enable-background:new 0 0 57 100;" xml:space="preserve">
<style type="text/css">
	.st0{fill-rule:evenodd;clip-rule:evenodd;}
</style>
<g id="Page-1">
	<path id="Combined-Shape" class="st0" d="M27.9,31.3L14.4,64.4L0,62C0,62,11.1,50.3,27.9,31.3z M56.2,42.7c1.1,1.1,1,2.9-0.1,4
		L44.7,57.4c-0.5,0.5-1.2,0.8-1.9,0.8c-0.4,0-0.8-0.1-1.2-0.3c-1-0.5-1.7-1.5-1.6-2.7l0.3-6.2l-3.1,6.6c0.3,0.1,0.7,0.2,1,0.4
		c2,1.2,2.7,3.8,1.5,5.8L30,78.4c-0.8,1.3-2.2,2.1-3.7,2.1c-0.7,0-1.5-0.2-2.1-0.6c-2-1.2-2.7-3.8-1.5-5.8l6.6-11.4l-3-1.5l-12.9,36
		c-0.6,1.7-2.2,2.8-4,2.8c-0.5,0-1-0.1-1.4-0.3c-2.2-0.8-3.3-3.2-2.6-5.4l13-36.3c0.1-0.2,0.2-0.4,0.3-0.6l0,0l10-23.9
		c0-0.1,0-0.1,0-0.2L40.3,1.9c0.5-1.5,2.2-2.2,3.6-1.7c1.5,0.5,2.2,2.2,1.7,3.6l-6.1,16.7c2-1.3,4.6-1.5,6.8-0.4
		c3.6,1.7,5.1,5.9,3.4,9.5c-1.7,3.6-5.9,5.1-9.5,3.4c-1.9-0.9-3.2-2.5-3.8-4.3l-1.6,4.3l8,3c0.2-0.1,0.5-0.1,0.8-0.1
		c1.6,0.1,2.8,1.4,2.7,3l-0.4,9.6l6.4-6C53.4,41.5,55.2,41.6,56.2,42.7z"/>
</g>
</svg>
